<svg width="90" height="18" viewBox="0 0 100 20">
    <g>
        <path d="M 3.063 18.6 Q 2.613 18.475 2.338 18.388 L 2.063 18.3 Q 2.113 18.175 2.026 18.075 Q 1.938 17.975 1.663 17.95 Q 1.288 17.725 0.976 17.388 Q 0.663 17.05 0.463 16.725 Q 0.263 16.4 0.163 16.175 Q -0.012 15.8 0.001 15.713 Q 0.013 15.625 0.288 15.5 Q 0.563 15.3 0.701 15.375 Q 0.838 15.45 1.038 15.875 Q 1.363 16.45 2.151 16.75 Q 2.938 17.05 3.926 17.013 Q 4.913 16.975 5.813 16.575 Q 6.738 16.2 6.976 15.788 Q 7.213 15.375 6.788 14.725 Q 6.713 14.525 6.613 14.4 Q 6.513 14.275 6.301 14.075 Q 6.088 13.875 5.613 13.425 Q 5.238 13.25 4.926 13.1 Q 4.613 12.95 4.263 12.775 Q 3.863 12.575 3.301 12.188 Q 2.738 11.8 2.238 11.325 Q 1.738 10.85 1.513 10.45 Q 1.113 10.075 0.913 9.413 Q 0.713 8.75 0.763 8 Q 0.813 7.25 1.138 6.65 Q 1.288 6.3 1.651 5.788 Q 2.013 5.275 2.463 4.75 Q 2.913 4.225 3.338 3.8 Q 3.763 3.375 4.038 3.2 Q 4.238 3 4.463 2.788 L 4.688 2.575 Q 4.713 2.45 4.776 2.45 L 4.838 2.45 Q 4.963 2.375 5.388 2.2 Q 5.813 2.025 6.313 1.55 Q 7.988 0.75 9.038 0.375 Q 10.088 0 10.763 0 Q 11.388 0.025 11.901 0.288 Q 12.413 0.55 12.751 0.975 Q 13.088 1.4 13.163 2 Q 13.338 2.6 13.063 3.388 Q 12.788 4.175 12.251 4.863 Q 11.713 5.55 11.088 5.9 Q 10.388 6.2 10.151 6.163 Q 9.913 6.125 9.938 5.65 Q 9.938 5.45 10.076 5.175 Q 10.213 4.9 10.838 4.2 Q 11.638 3.025 11.813 2.325 Q 11.988 1.625 11.488 1.55 Q 11.338 1.5 10.951 1.55 Q 10.563 1.6 10.101 1.688 Q 9.638 1.775 9.313 1.863 Q 8.988 1.95 8.988 2 L 8.988 2.075 Q 8.988 2.15 8.888 2.125 Q 8.838 2.125 8.463 2.325 Q 8.088 2.525 7.563 2.85 L 6.513 3.5 Q 5.988 3.825 5.626 4.063 Q 5.263 4.3 5.238 4.35 Q 5.188 4.625 4.663 4.85 Q 4.163 5.15 3.751 5.725 Q 3.338 6.3 2.838 7.15 Q 2.413 7.725 2.238 8.388 Q 2.063 9.05 2.238 9.45 Q 2.363 9.85 3.013 10.475 Q 3.663 11.1 4.638 11.675 Q 5.488 12.15 6.163 12.613 Q 6.838 13.075 7.276 13.5 Q 7.713 13.925 7.863 14.25 Q 8.163 14.675 8.301 15.113 Q 8.438 15.55 8.451 15.95 Q 8.463 16.35 8.363 16.675 Q 8.188 17.075 7.751 17.5 Q 7.313 17.925 7.013 17.9 Q 6.738 17.975 6.601 18.075 Q 6.463 18.175 6.288 18.25 Q 6.113 18.35 5.551 18.45 Q 4.988 18.55 4.313 18.588 Q 3.638 18.625 3.063 18.6 Z M 13.288 10.125 L 13.963 8.675 L 12.963 8.4 Q 12.788 8.35 12.676 8.2 Q 12.563 8.05 12.563 7.95 Q 12.563 7.75 12.788 7.463 Q 13.013 7.175 13.113 7.175 Q 13.238 7.2 13.576 7.2 Q 13.913 7.2 14.238 7.175 Q 14.563 7.15 14.638 7.125 Q 14.738 7.075 14.838 6.988 Q 14.938 6.9 14.988 6.725 Q 15.113 6.45 15.213 6.213 Q 15.313 5.975 15.488 5.675 Q 15.663 5.35 15.776 5.125 Q 15.888 4.9 16.138 4.5 Q 16.263 4.325 16.413 4.075 Q 16.563 3.825 16.788 3.65 Q 17.013 3.45 17.251 3.463 Q 17.488 3.475 17.863 3.8 Q 18.063 4.05 18.088 4.175 Q 18.113 4.3 17.888 4.65 Q 17.688 5.075 17.426 5.5 Q 17.163 5.925 16.938 6.35 Q 16.538 6.9 16.788 6.975 Q 17.038 7.05 18.188 6.875 Q 18.913 6.75 19.238 6.938 Q 19.563 7.125 19.613 7.55 Q 19.688 8.15 19.488 8.275 Q 19.288 8.4 18.338 8.4 Q 17.738 8.5 17.313 8.513 Q 16.888 8.525 16.688 8.525 Q 16.363 8.55 16.263 8.55 Q 16.163 8.55 15.963 8.6 Q 15.763 8.65 15.676 8.763 Q 15.588 8.875 15.488 9.075 Q 15.388 9.175 15.188 9.6 Q 14.988 10.025 14.688 10.525 Q 14.338 11.575 14.088 12.613 Q 13.838 13.65 13.688 14.625 Q 13.588 15.25 13.713 15.488 Q 13.838 15.725 14.363 15.775 Q 14.638 15.8 15.251 15.763 Q 15.863 15.725 16.213 15.625 Q 16.488 15.5 16.788 15.363 Q 17.088 15.225 17.338 15.075 Q 17.563 14.95 17.788 14.813 L 18.013 14.675 Q 18.138 14.475 18.288 14.55 Q 18.438 14.625 18.538 14.925 Q 18.538 15.225 18.413 15.55 Q 18.288 15.875 17.488 16.325 Q 16.363 17.025 15.426 17.163 Q 14.488 17.3 13.838 17.175 Q 13.563 17.125 13.276 16.888 Q 12.988 16.65 12.776 16.338 Q 12.563 16.025 12.488 15.775 Q 12.488 15.725 12.426 15.65 L 12.363 15.575 Q 12.263 15.5 12.251 14.913 Q 12.238 14.325 12.313 13.6 Q 12.388 12.875 12.488 12.45 Q 12.613 12.05 12.863 11.363 Q 13.113 10.675 13.288 10.125 Z M 81.138 16.2 Q 80.638 16.2 80.313 15.988 Q 79.988 15.775 79.763 15.275 Q 79.663 14.925 79.601 14.488 Q 79.538 14.05 79.538 13.663 Q 79.538 13.275 79.613 13.15 Q 79.713 13.05 79.701 12.788 Q 79.688 12.525 79.688 12.225 Q 79.663 11.725 79.451 11.663 Q 79.238 11.6 78.838 11.825 Q 78.388 12.1 77.663 12.563 Q 76.938 13.025 76.151 13.575 Q 75.363 14.125 74.663 14.725 Q 74.113 15.325 74.001 15.638 Q 73.888 15.95 73.688 15.95 Q 73.488 16.05 73.351 15.963 Q 73.213 15.875 72.963 15.675 Q 72.788 15.475 72.613 15.288 Q 72.438 15.1 72.388 15 Q 72.388 14.875 72.463 14.475 Q 72.538 14.075 72.651 13.675 Q 72.763 13.275 72.813 13.15 Q 72.938 13.15 73.026 12.9 Q 73.113 12.65 73.313 12.35 Q 73.363 12.05 73.576 11.538 Q 73.788 11.025 73.963 10.625 Q 74.313 10.025 74.451 9.625 Q 74.588 9.225 74.638 8.625 Q 74.613 8.525 74.688 8.438 Q 74.763 8.35 74.863 8.35 Q 75.063 8.15 75.338 8.238 Q 75.613 8.325 75.838 8.625 Q 76.288 9.225 76.201 9.863 Q 76.113 10.5 75.388 11.675 Q 75.213 12.075 75.126 12.288 Q 75.038 12.5 75.038 12.625 L 75.301 12.45 Q 75.563 12.275 75.901 12.038 Q 76.238 11.8 76.438 11.675 Q 76.563 11.55 77.013 11.225 Q 77.463 10.9 77.976 10.588 Q 78.488 10.275 78.738 10.225 Q 78.938 10.125 79.163 10.038 Q 79.388 9.95 79.488 9.95 Q 79.688 9.95 80.001 10.163 Q 80.313 10.375 80.588 10.663 Q 80.863 10.95 80.913 11.15 Q 80.913 11.25 80.926 11.35 Q 80.938 11.45 80.963 11.55 Q 81.063 11.875 81.076 12.425 Q 81.088 12.975 81.038 13.425 Q 80.988 13.875 80.863 13.95 L 80.876 14.013 Q 80.888 14.075 80.988 14.075 L 80.988 14.188 L 80.988 14.2 Q 80.863 14.2 80.888 14.413 Q 80.913 14.625 81.051 14.875 Q 81.188 15.125 81.338 15.275 Q 81.638 15.575 81.588 15.838 Q 81.538 16.1 81.138 16.2 Z M 29.263 17.35 Q 28.788 17.475 28.501 17.15 Q 28.213 16.825 28.163 16.15 Q 28.113 15.475 28.313 14.55 Q 28.438 14.25 28.513 13.963 Q 28.588 13.675 28.588 13.5 Q 28.638 13.25 28.788 12.763 Q 28.938 12.275 29.113 11.75 Q 29.288 11.225 29.451 10.813 Q 29.613 10.4 29.663 10.3 Q 29.763 10.3 29.838 10.125 Q 29.913 9.95 29.913 9.775 Q 29.913 9.575 30.001 9.325 Q 30.088 9.075 30.188 8.975 Q 30.188 8.85 30.251 8.688 Q 30.313 8.525 30.313 8.425 Q 30.313 8.325 30.376 8.225 Q 30.438 8.125 30.438 8.025 Q 30.613 7.7 30.901 6.988 Q 31.188 6.275 31.526 5.4 Q 31.863 4.525 32.163 3.675 Q 32.463 2.825 32.651 2.238 Q 32.838 1.65 32.838 1.525 Q 32.838 1.325 32.938 1.225 Q 33.038 1.125 33.238 1.125 Q 33.313 1.05 33.426 1.025 Q 33.538 1 33.638 1 L 33.738 1.1 L 34.038 1.4 Q 34.238 1.575 34.276 1.8 Q 34.313 2.025 34.313 2.325 Q 34.313 2.65 34.238 2.9 Q 34.163 3.15 33.938 3.625 Q 33.713 4.1 33.238 5.1 Q 33.038 5.6 32.813 6.038 Q 32.588 6.475 32.588 6.575 Q 32.588 6.675 32.501 6.875 Q 32.413 7.075 32.313 7.375 Q 32.213 7.575 32.038 7.963 Q 31.863 8.35 31.676 8.788 Q 31.488 9.225 31.363 9.538 Q 31.238 9.85 31.238 9.9 Q 31.238 10 31.226 10.1 Q 31.213 10.2 31.113 10.3 Q 31.013 10.3 31.001 10.438 L 30.988 10.575 Q 30.988 10.825 30.588 11.9 Q 30.188 13.275 29.851 14.425 Q 29.513 15.575 29.513 16.275 Q 29.513 16.875 29.488 17.063 Q 29.463 17.25 29.263 17.35 Z M 33.738 17.35 Q 33.263 17.475 32.976 17.15 Q 32.688 16.825 32.638 16.15 Q 32.588 15.475 32.788 14.55 Q 32.913 14.25 32.988 13.963 Q 33.063 13.675 33.063 13.5 Q 33.113 13.25 33.263 12.763 Q 33.413 12.275 33.588 11.75 Q 33.763 11.225 33.926 10.813 Q 34.088 10.4 34.138 10.3 Q 34.238 10.3 34.313 10.125 Q 34.388 9.95 34.388 9.775 Q 34.388 9.575 34.476 9.325 Q 34.563 9.075 34.663 8.975 Q 34.663 8.85 34.726 8.688 Q 34.788 8.525 34.788 8.425 Q 34.788 8.325 34.851 8.225 Q 34.913 8.125 34.913 8.025 Q 35.088 7.7 35.376 6.988 Q 35.663 6.275 36.001 5.4 Q 36.338 4.525 36.638 3.675 Q 36.938 2.825 37.126 2.238 Q 37.313 1.65 37.313 1.525 Q 37.313 1.325 37.413 1.225 Q 37.513 1.125 37.713 1.125 Q 37.788 1.05 37.901 1.025 Q 38.013 1 38.113 1 L 38.213 1.1 L 38.513 1.4 Q 38.713 1.575 38.751 1.8 Q 38.788 2.025 38.788 2.325 Q 38.788 2.65 38.713 2.9 Q 38.638 3.15 38.413 3.625 Q 38.188 4.1 37.713 5.1 Q 37.513 5.6 37.288 6.038 Q 37.063 6.475 37.063 6.575 Q 37.063 6.675 36.976 6.875 Q 36.888 7.075 36.788 7.375 Q 36.688 7.575 36.513 7.963 Q 36.338 8.35 36.151 8.788 Q 35.963 9.225 35.838 9.538 Q 35.713 9.85 35.713 9.9 Q 35.713 10 35.701 10.1 Q 35.688 10.2 35.588 10.3 Q 35.488 10.3 35.476 10.438 L 35.463 10.575 Q 35.463 10.825 35.063 11.9 Q 34.663 13.275 34.326 14.425 Q 33.988 15.575 33.988 16.275 Q 33.988 16.875 33.963 17.063 Q 33.938 17.25 33.738 17.35 Z M 57.888 17.35 Q 57.413 17.475 57.126 17.15 Q 56.838 16.825 56.788 16.15 Q 56.738 15.475 56.938 14.55 Q 57.063 14.25 57.138 13.963 Q 57.213 13.675 57.213 13.5 Q 57.263 13.25 57.413 12.763 Q 57.563 12.275 57.738 11.75 Q 57.913 11.225 58.076 10.813 Q 58.238 10.4 58.288 10.3 Q 58.388 10.3 58.463 10.125 Q 58.538 9.95 58.538 9.775 Q 58.538 9.575 58.626 9.325 Q 58.713 9.075 58.813 8.975 Q 58.813 8.85 58.876 8.688 Q 58.938 8.525 58.938 8.425 Q 58.938 8.325 59.001 8.225 Q 59.063 8.125 59.063 8.025 Q 59.238 7.7 59.526 6.988 Q 59.813 6.275 60.151 5.4 Q 60.488 4.525 60.788 3.675 Q 61.088 2.825 61.276 2.238 Q 61.463 1.65 61.463 1.525 Q 61.463 1.325 61.563 1.225 Q 61.663 1.125 61.863 1.125 Q 61.938 1.05 62.051 1.025 Q 62.163 1 62.263 1 L 62.363 1.1 L 62.663 1.4 Q 62.863 1.575 62.901 1.8 Q 62.938 2.025 62.938 2.325 Q 62.938 2.65 62.863 2.9 Q 62.788 3.15 62.563 3.625 Q 62.338 4.1 61.863 5.1 Q 61.663 5.6 61.438 6.038 Q 61.213 6.475 61.213 6.575 Q 61.213 6.675 61.126 6.875 Q 61.038 7.075 60.938 7.375 Q 60.838 7.575 60.663 7.963 Q 60.488 8.35 60.301 8.788 Q 60.113 9.225 59.988 9.538 Q 59.863 9.85 59.863 9.9 Q 59.863 10 59.851 10.1 Q 59.838 10.2 59.738 10.3 Q 59.638 10.3 59.626 10.438 L 59.613 10.575 Q 59.613 10.825 59.213 11.9 Q 58.813 13.275 58.476 14.425 Q 58.138 15.575 58.138 16.275 Q 58.138 16.875 58.113 17.063 Q 58.088 17.25 57.888 17.35 Z M 63.313 10.6 L 63.313 10.45 Q 63.313 10.325 63.551 10.025 Q 63.788 9.725 64.138 9.363 Q 64.488 9 64.863 8.663 Q 65.238 8.325 65.488 8.175 Q 66.013 7.825 66.576 7.75 Q 67.138 7.675 67.538 8 L 67.788 8.25 Q 67.963 8.425 68.201 8.638 Q 68.438 8.85 68.688 9.075 L 69.613 9.9 L 69.163 11.15 Q 68.838 12.15 69.001 12.9 Q 69.163 13.65 69.488 14.2 Q 69.613 14.475 70.001 14.725 Q 70.388 14.975 70.738 15.025 Q 70.938 15.05 71.113 15.175 Q 71.288 15.3 71.288 15.575 Q 71.288 15.825 71.188 15.975 Q 71.088 16.125 70.838 16.175 Q 70.013 16.275 69.301 15.775 Q 68.588 15.275 67.988 14.125 Q 67.888 13.975 67.726 13.563 Q 67.563 13.15 67.538 13.025 Q 67.438 13.15 67.163 13.488 Q 66.888 13.825 66.738 13.975 Q 64.963 15.775 63.676 16.388 Q 62.388 17 61.538 16.45 Q 61.438 16.25 61.288 16.138 Q 61.138 16.025 61.138 15.925 Q 61.138 15.825 61.126 15.713 Q 61.113 15.6 61.013 15.5 Q 60.888 15.35 61.038 14.813 Q 61.188 14.275 61.538 13.488 Q 61.888 12.7 62.363 11.825 Q 62.563 11.625 62.763 11.3 Q 62.963 10.975 63.063 10.875 Q 63.063 10.775 63.138 10.688 Q 63.213 10.6 63.313 10.6 Z M 39.163 10.6 L 39.163 10.45 Q 39.163 10.325 39.401 10.025 Q 39.638 9.725 39.988 9.363 Q 40.338 9 40.713 8.663 Q 41.088 8.325 41.338 8.175 Q 41.863 7.825 42.426 7.75 Q 42.988 7.675 43.388 8 L 43.638 8.25 Q 43.813 8.425 44.051 8.638 Q 44.288 8.85 44.538 9.075 L 45.463 9.9 L 45.013 11.15 Q 44.688 12.15 44.851 12.9 Q 45.013 13.65 45.338 14.2 Q 45.463 14.475 45.851 14.725 Q 46.238 14.975 46.588 15.025 Q 46.788 15.05 46.963 15.175 Q 47.138 15.3 47.138 15.575 Q 47.138 15.825 47.038 15.975 Q 46.938 16.125 46.688 16.175 Q 45.863 16.275 45.151 15.775 Q 44.438 15.275 43.838 14.125 Q 43.738 13.975 43.576 13.563 Q 43.413 13.15 43.388 13.025 Q 43.288 13.15 43.013 13.488 Q 42.738 13.825 42.588 13.975 Q 40.813 15.775 39.526 16.388 Q 38.238 17 37.388 16.45 Q 37.288 16.25 37.138 16.138 Q 36.988 16.025 36.988 15.925 Q 36.988 15.825 36.976 15.713 Q 36.963 15.6 36.863 15.5 Q 36.738 15.35 36.888 14.813 Q 37.038 14.275 37.388 13.488 Q 37.738 12.7 38.213 11.825 Q 38.413 11.625 38.613 11.3 Q 38.813 10.975 38.913 10.875 Q 38.913 10.775 38.988 10.688 Q 39.063 10.6 39.163 10.6 Z M 24.538 16.475 Q 24.013 16.925 23.326 17 Q 22.638 17.075 21.988 16.788 Q 21.338 16.5 20.913 15.9 Q 20.488 15.35 20.363 14.638 Q 20.238 13.925 20.338 12.775 Q 20.413 11.8 20.963 10.813 Q 21.513 9.825 22.301 9.05 Q 23.088 8.275 23.863 7.975 Q 24.238 7.725 24.501 7.738 Q 24.763 7.75 25.313 7.8 Q 25.888 7.875 26.176 8.025 Q 26.463 8.175 26.638 8.425 Q 27.013 8.8 27.138 9.163 Q 27.263 9.525 27.263 9.875 Q 27.163 10.425 26.526 11.213 Q 25.888 12 24.863 12.5 Q 24.313 12.675 23.663 12.65 Q 23.013 12.625 22.588 12.325 Q 22.113 12.125 21.963 12.388 Q 21.813 12.65 21.688 13.65 Q 21.588 14.6 21.838 15.038 Q 22.088 15.475 22.513 15.55 Q 23.013 15.65 23.301 15.688 Q 23.588 15.725 24.013 15.475 Q 24.413 15.225 24.513 15.188 Q 24.613 15.15 24.676 15.088 L 24.988 14.775 Q 25.163 14.6 25.263 14.513 Q 25.363 14.425 25.488 14.425 Q 25.613 14.425 25.713 14.538 Q 25.813 14.65 25.913 14.7 Q 26.163 14.7 26.026 15 Q 25.888 15.3 25.488 15.713 Q 25.088 16.125 24.538 16.475 Z M 87.938 16.475 Q 87.413 16.925 86.726 17 Q 86.038 17.075 85.388 16.788 Q 84.738 16.5 84.313 15.9 Q 83.888 15.35 83.763 14.638 Q 83.638 13.925 83.738 12.775 Q 83.813 11.8 84.363 10.813 Q 84.913 9.825 85.701 9.05 Q 86.488 8.275 87.263 7.975 Q 87.638 7.725 87.901 7.738 Q 88.163 7.75 88.713 7.8 Q 89.288 7.875 89.576 8.025 Q 89.863 8.175 90.038 8.425 Q 90.413 8.8 90.538 9.163 Q 90.663 9.525 90.663 9.875 Q 90.563 10.425 89.926 11.213 Q 89.288 12 88.263 12.5 Q 87.713 12.675 87.063 12.65 Q 86.413 12.625 85.988 12.325 Q 85.513 12.125 85.363 12.388 Q 85.213 12.65 85.088 13.65 Q 84.988 14.6 85.238 15.038 Q 85.488 15.475 85.913 15.55 Q 86.413 15.65 86.701 15.688 Q 86.988 15.725 87.413 15.475 Q 87.813 15.225 87.913 15.188 Q 88.013 15.15 88.076 15.088 L 88.388 14.775 Q 88.563 14.6 88.663 14.513 Q 88.763 14.425 88.888 14.425 Q 89.013 14.425 89.113 14.538 Q 89.213 14.65 89.313 14.7 Q 89.563 14.7 89.426 15 Q 89.288 15.3 88.888 15.713 Q 88.488 16.125 87.938 16.475 Z M 48.613 16.475 Q 48.388 16.3 48.301 16.125 Q 48.213 15.95 48.288 15.45 Q 48.363 14.75 48.488 14.213 Q 48.613 13.675 48.788 12.975 Q 48.838 12.675 49.076 11.95 Q 49.313 11.225 49.663 10.375 Q 50.013 9.525 50.363 8.763 Q 50.713 8 50.963 7.625 Q 51.163 7.475 51.451 7.5 Q 51.738 7.525 51.938 7.725 Q 52.213 7.95 52.026 8.513 Q 51.838 9.075 51.263 10.275 L 50.813 11.288 Q 50.663 11.625 50.688 11.688 Q 50.713 11.75 50.913 11.625 Q 51.063 11.35 51.463 10.988 Q 51.863 10.625 52.313 10.275 Q 52.763 9.925 53.163 9.65 Q 53.563 9.375 53.713 9.3 Q 53.913 9.175 54.176 9.088 Q 54.438 9 54.538 8.95 Q 55.113 8.675 55.713 8.75 Q 56.313 8.825 56.463 9.2 Q 56.488 9.4 56.626 9.5 L 56.763 9.6 Q 56.863 9.6 56.876 9.675 L 56.888 9.75 Q 56.888 9.925 56.626 9.963 Q 56.363 10 55.963 10.025 Q 55.638 10.05 55.388 10.15 Q 55.138 10.25 54.788 10.4 Q 53.838 10.95 52.976 11.475 Q 52.113 12 51.313 12.875 Q 51.138 13.075 50.963 13.35 Q 50.788 13.625 50.588 13.95 Q 50.463 14.075 50.338 14.5 Q 50.213 14.925 50.126 15.313 Q 50.038 15.7 50.038 15.775 L 49.963 16.013 Q 49.888 16.25 49.713 16.475 Q 49.413 16.875 49.213 16.875 Q 49.013 16.875 48.613 16.475 Z M 43.088 11.125 L 43.638 10.225 Q 43.388 9.65 43.101 9.438 Q 42.813 9.225 42.613 9.225 Q 42.288 9.225 41.651 9.825 Q 41.013 10.425 40.288 11.425 Q 39.563 12.425 38.913 13.625 Q 38.663 14.125 38.476 14.588 L 38.288 15.05 Q 38.288 15.225 38.826 15.038 Q 39.363 14.85 39.988 14.35 Q 40.838 13.625 41.701 12.75 Q 42.563 11.875 43.088 11.125 Z M 67.238 11.125 L 67.788 10.225 Q 67.538 9.65 67.251 9.438 Q 66.963 9.225 66.763 9.225 Q 66.438 9.225 65.801 9.825 Q 65.163 10.425 64.438 11.425 Q 63.713 12.425 63.063 13.625 Q 62.813 14.125 62.626 14.588 L 62.438 15.05 Q 62.438 15.225 62.976 15.038 Q 63.513 14.85 64.138 14.35 Q 64.988 13.625 65.851 12.75 Q 66.713 11.875 67.238 11.125 Z M 24.513 11.175 Q 24.788 11.05 25.088 10.813 Q 25.388 10.575 25.601 10.288 Q 25.813 10 25.813 9.8 Q 25.813 9.45 25.488 9.213 Q 25.163 8.975 24.513 9.15 Q 24.238 9.225 23.888 9.513 Q 23.538 9.8 23.226 10.15 Q 22.913 10.5 22.726 10.775 Q 22.538 11.05 22.588 11.1 Q 22.663 11.225 23.013 11.288 Q 23.363 11.35 23.801 11.325 Q 24.238 11.3 24.513 11.175 Z M 87.913 11.175 Q 88.188 11.05 88.488 10.813 Q 88.788 10.575 89.001 10.288 Q 89.213 10 89.213 9.8 Q 89.213 9.45 88.888 9.213 Q 88.563 8.975 87.913 9.15 Q 87.638 9.225 87.288 9.513 Q 86.938 9.8 86.626 10.15 Q 86.313 10.5 86.126 10.775 Q 85.938 11.05 85.988 11.1 Q 86.063 11.225 86.413 11.288 Q 86.763 11.35 87.201 11.325 Q 87.638 11.3 87.913 11.175 Z" vector-effect="non-scaling-stroke"/>
    </g>
</svg>